<svg width="36" height="38" viewBox="0 0 36 38" fill="none" xmlns="http://www.w3.org/2000/svg">
<path d="M2 35.8301V20.4575M2 20.4575C3.6732 20.4575 2.94118 20.4575 10.1569 20.4575M2 20.4575V2M10.1569 20.4575C17.3725 20.4575 11.7255 4.45752 21.7647 4.45752C24.902 4.45752 25.2157 4.45751 28.6667 4.45752C31.8039 4.45753 34 6.33988 34 8.22223C34 10.1046 34 8.22224 34 14.183M10.1569 20.4575C11.9346 20.4575 16.7451 22.2771 16.7451 34.5752M34 14.183C26.6453 14.183 20.3117 12.9281 20.3117 17.3203C20.3117 21.7124 19.5686 23.5948 25.8431 23.5948C31.0788 23.5948 34 24.2222 34 20.1438C34 18.8889 34 16.4726 34 14.183ZM21.451 29.5556H34" stroke="white" stroke-width="3" stroke-linecap="square" stroke-linejoin="round"/>
</svg>
