<svg width="20" height="13" viewBox="0 0 20 13" fill="none" xmlns="http://www.w3.org/2000/svg">
<path fill-rule="evenodd" clip-rule="evenodd" d="M0.0400388 6.25077C0.0400388 6.06777 0.112735 5.89226 0.242135 5.76286C0.371535 5.63346 0.547039 5.56077 0.730039 5.56077C7.08557 5.56077 10.6489 5.56077 17.0044 5.56077L12.6615 1.21928C12.532 1.08972 12.4592 0.913995 12.4592 0.730765C12.4592 0.547534 12.532 0.371808 12.6615 0.242244C12.7911 0.112681 12.9668 0.0398935 13.15 0.0398935C13.3333 0.0398935 13.509 0.112681 13.6386 0.242244L19.1586 5.76225C19.2228 5.82634 19.2738 5.90248 19.3086 5.98631C19.3434 6.07014 19.3613 6.16001 19.3613 6.25077C19.3613 6.34152 19.3434 6.43139 19.3086 6.51522C19.2738 6.59905 19.2228 6.67519 19.1586 6.73929L13.6386 12.2593C13.509 12.3889 13.3333 12.4616 13.15 12.4616C12.9668 12.4616 12.7911 12.3889 12.6615 12.2593C12.532 12.1297 12.4592 11.954 12.4592 11.7708C12.4592 11.5875 12.532 11.4118 12.6615 11.2822L17.0044 6.94077L0.730039 6.94077C0.54704 6.94077 0.371535 6.86807 0.242135 6.73867C0.112735 6.60927 0.0400388 6.43377 0.0400388 6.25077Z" fill="#7580D9"/>
</svg>
