<svg width="33" height="33" viewBox="0 0 33 33" fill="none" xmlns="http://www.w3.org/2000/svg">
<path d="M30.4076 0.599976H3.14005C1.83605 0.599976 0.777832 1.63331 0.777832 2.90575V30.2911C0.777832 31.5653 1.83605 32.6 3.14005 32.6H30.4076C31.7125 32.6 32.7778 31.5653 32.7778 30.2911V2.90575C32.7778 1.63331 31.7125 0.599976 30.4076 0.599976ZM10.2685 27.8684H5.52005V12.5978H10.2685V27.8684ZM7.89428 10.5098C7.53285 10.5098 7.17496 10.4385 6.84106 10.3002C6.50717 10.1618 6.20381 9.959 5.94832 9.70335C5.69283 9.44769 5.49022 9.1442 5.35207 8.81022C5.21392 8.47623 5.14293 8.1183 5.14317 7.75687C5.14317 7.02728 5.43299 6.32758 5.94888 5.81169C6.46477 5.2958 7.16447 5.00598 7.89405 5.00598C8.62364 5.00598 9.32333 5.2958 9.83923 5.81169C10.3551 6.32758 10.6449 7.02728 10.6449 7.75687C10.6449 8.48659 10.3552 9.18646 9.83943 9.70267C9.32364 10.2189 8.624 10.5092 7.89428 10.5098ZM28.0445 27.8684H23.3036V20.4426C23.3036 18.6711 23.2689 16.3933 20.8365 16.3933C18.3663 16.3933 17.9898 18.3226 17.9898 20.3142V27.8689H13.2454V12.5978H17.7987V14.6831H17.8636C18.4974 13.4831 20.0458 12.2169 22.3552 12.2169C27.1578 12.2169 28.0449 15.3786 28.0449 19.492L28.0445 27.8684Z" fill="white"/>
</svg>
