<svg width="39" height="32" viewBox="0 0 39 32" fill="none" xmlns="http://www.w3.org/2000/svg">
<path d="M2 11.1984L19.0464 20.064C19.2174 20.1529 19.4073 20.1993 19.6 20.1993C19.7927 20.1993 19.9826 20.1529 20.1536 20.064L37.2 11.2V26.6C37.2001 27.9282 36.6919 29.2061 35.7797 30.1716C34.8675 31.137 33.6205 31.7168 32.2944 31.792L32 31.8H7.2C5.87178 31.8001 4.59387 31.2919 3.62843 30.3797C2.66299 29.4675 2.0832 28.2205 2.008 26.8944L2 26.6V11.1984ZM7.2 3H32C33.3282 2.99991 34.6061 3.50809 35.5716 4.42027C36.537 5.3325 37.1168 6.5795 37.192 7.9056L37.2 8.2V8.4944L19.6 17.6464L2 8.4944V8.2C1.99991 6.8718 2.50809 5.5939 3.42027 4.62843C4.33246 3.66299 5.57951 3.0832 6.9056 3.008L7.2 3Z" fill="white"/>
</svg>
