<svg width="33" height="27" viewBox="0 0 33 27" fill="none" xmlns="http://www.w3.org/2000/svg">
<path d="M32.5989 3.5634C31.4007 4.09419 30.1298 4.44242 28.8284 4.5965C30.1992 3.77634 31.2249 2.48575 31.7145 0.965264C30.4261 1.73014 29.0162 2.26874 27.546 2.55772C26.9317 1.90255 26.1894 1.3805 25.3652 1.02394C24.5409 0.667379 23.6522 0.483897 22.7541 0.484867C19.1286 0.484867 16.1889 3.42377 16.1889 7.05001C16.1889 7.56407 16.2471 8.06566 16.3593 8.54648C10.9029 8.27262 6.06568 5.65869 2.82757 1.68628C2.24373 2.68824 1.93693 3.82748 1.93867 4.98713C1.93781 6.06803 2.20396 7.1324 2.71347 8.08568C3.22299 9.03895 3.96009 9.85161 4.85928 10.4514C3.81691 10.4183 2.79752 10.1368 1.88589 9.63028C1.88506 9.65771 1.88506 9.68472 1.88506 9.71298C1.88506 12.8929 4.14783 15.5463 7.15073 16.1501C6.1838 16.4119 5.17 16.4503 4.18606 16.2623C5.02135 18.87 7.44578 20.7688 10.3186 20.8219C7.99305 22.647 5.12131 23.6368 2.16515 23.6324C1.6353 23.6324 1.11293 23.6017 0.598877 23.5406C3.60067 25.4693 7.09427 26.493 10.6623 26.4895C22.7379 26.4895 29.3412 16.4863 29.3412 7.81175C29.3412 7.5275 29.3346 7.24367 29.3221 6.9615C30.6081 6.03308 31.7178 4.88228 32.5989 3.5634Z" fill="white"/>
</svg>
